<svg width="240" height="352" viewBox="0 0 240 352" fill="none" xmlns="http://www.w3.org/2000/svg">
<circle cx="120" cy="25" r="25" fill="#46EEFF"/>
<rect x="75" y="16" width="90" height="30" rx="5" fill="#4689FF"/>
<rect y="32" width="240" height="320" rx="10" fill="#3FFF9F"/>
<rect x="20" y="52" width="200" height="280" rx="19" fill="white"/>
<rect x="46" y="75" width="148" height="5" rx="2.5" fill="#060606"/>
<rect x="46" y="99" width="148" height="5" rx="2.5" fill="#060606"/>
<rect x="46" y="219" width="148" height="5" rx="2.5" fill="#060606"/>
<rect x="46" y="243" width="148" height="5" rx="2.5" fill="#060606"/>
<rect x="46" y="267" width="148" height="5" rx="2.5" fill="#060606"/>
<rect x="46" y="291" width="148" height="5" rx="2.5" fill="#060606"/>
<rect x="48" y="195" width="148" height="5" rx="2.5" fill="#060606"/>
<rect x="48" y="171" width="148" height="5" rx="2.5" fill="#060606"/>
<rect x="48" y="147" width="148" height="5" rx="2.5" fill="#060606"/>
<rect x="46" y="123" width="148" height="5" rx="2.5" fill="#060606"/>
</svg>
